<?xml version="1.0" standalone="no"?>
<!DOCTYPE svg PUBLIC "-//W3C//DTD SVG 20010904//EN"
 "http://www.w3.org/TR/2001/REC-SVG-20010904/DTD/svg10.dtd">
<svg version="1.0" xmlns="http://www.w3.org/2000/svg"
 width="400.000000pt" height="400.000000pt" viewBox="0 0 400.000000 400.000000"
 preserveAspectRatio="xMidYMid meet">
<metadata>
Created by potrace 1.11, written by Peter Selinger 2001-2013
</metadata>
<g transform="translate(0.000000,400.000000) scale(0.100000,-0.100000)"
fill="#000000" stroke="none">
<path d="M1955 3960 c-3 -5 -3 -16 1 -22 4 -7 -3 -4 -16 7 -13 11 -20 15 -17
9 4 -7 0 -15 -9 -18 -11 -4 -15 -2 -11 8 4 10 1 13 -8 9 -8 -3 -12 -9 -9 -14
3 -5 0 -9 -5 -9 -6 0 -11 4 -11 8 0 5 -14 8 -30 8 -25 0 -29 -3 -25 -20 3 -12
2 -15 -1 -8 -3 6 -11 9 -16 6 -7 -4 -8 -2 -4 4 5 8 1 10 -10 5 -13 -5 -15 -3
-9 8 7 11 6 12 -7 2 -8 -7 -19 -9 -23 -5 -5 4 -5 1 -1 -6 4 -7 11 -10 16 -7 4
3 14 -3 21 -13 12 -15 12 -16 -1 -6 -8 6 -23 10 -32 9 -10 -2 -18 0 -18 4 0 4
-7 8 -15 8 -11 0 -12 -4 -3 -14 8 -11 7 -12 -6 -7 -9 3 -16 10 -16 16 0 5 -5
6 -10 3 -6 -4 -8 -9 -6 -13 2 -4 -6 -7 -19 -7 -13 0 -21 3 -19 7 2 4 0 9 -6
13 -5 3 -10 -1 -10 -10 0 -13 -4 -14 -21 -4 -14 7 -19 7 -15 0 4 -6 -4 -13
-19 -17 -14 -3 -25 -11 -25 -17 0 -6 -3 -7 -6 -4 -4 4 -1 13 5 21 10 12 9 13
-9 9 -13 -3 -19 -11 -16 -19 3 -8 1 -14 -4 -14 -6 0 -10 6 -11 13 0 6 -4 3 -9
-8 -5 -12 -9 -14 -9 -6 -1 11 -5 10 -16 -5 -10 -13 -14 -15 -15 -5 0 11 -5 9
-22 -5 -12 -10 -18 -14 -15 -7 5 8 0 11 -12 10 -19 -1 -19 -2 -3 -21 17 -19
17 -19 -13 0 -30 19 -30 18 -15 -1 8 -11 11 -17 6 -13 -5 4 -18 2 -30 -4 -20
-11 -20 -10 -6 8 15 18 14 18 -14 0 -16 -10 -26 -14 -22 -8 5 8 -22 9 -31 2
-2 -2 -9 -3 -15 -4 -7 -1 -12 -7 -11 -13 1 -6 -13 -14 -32 -17 -22 -4 -36 -14
-40 -27 -6 -17 -9 -18 -23 -7 -12 10 -14 10 -8 1 4 -8 2 -13 -4 -13 -6 0 -8
-6 -4 -12 4 -7 4 -10 -1 -6 -4 4 -17 2 -29 -4 -20 -11 -20 -10 -6 8 14 18 14
18 -2 5 -10 -7 -18 -21 -19 -30 0 -10 -2 -11 -6 -3 -2 6 -9 12 -14 12 -6 0 -7
-4 -4 -10 3 -6 -4 -10 -17 -10 -13 0 -30 -5 -38 -11 -12 -8 -9 -9 10 -5 25 6
25 6 3 -5 -13 -7 -23 -16 -23 -21 0 -5 -6 -6 -12 -1 -19 11 -39 13 -32 2 3 -5
10 -6 16 -3 7 4 8 2 4 -5 -4 -6 -11 -9 -16 -6 -12 7 -40 -5 -40 -17 0 -6 8 -4
18 3 15 13 16 12 3 -4 -11 -14 -16 -15 -29 -5 -13 10 -14 10 -8 0 5 -8 -2 -15
-18 -21 -13 -6 -27 -19 -31 -30 -4 -13 -11 -18 -22 -14 -11 4 -14 2 -9 -5 4
-7 1 -12 -9 -12 -10 0 -13 -5 -9 -12 5 -8 2 -9 -11 -5 -14 6 -16 3 -12 -13 4
-17 2 -18 -15 -9 -15 8 -19 8 -14 0 4 -6 2 -19 -4 -28 -11 -17 -11 -17 -6 0 3
9 1 17 -4 17 -6 0 -10 -5 -10 -11 0 -5 -6 -7 -12 -3 -9 5 -8 2 1 -9 12 -15 12
-17 -1 -12 -18 7 -42 -20 -32 -36 4 -8 3 -9 -5 -5 -6 4 -18 0 -27 -8 -9 -9
-21 -13 -27 -9 -6 4 -8 0 -4 -10 3 -10 2 -17 -4 -17 -6 0 -8 -4 -5 -9 3 -5 -1
-14 -9 -21 -13 -11 -14 -10 -9 4 3 9 2 16 -4 16 -6 0 -9 -11 -8 -24 2 -17 -1
-23 -10 -19 -9 3 -14 -2 -14 -15 0 -12 -4 -24 -10 -27 -6 -3 -7 1 -4 12 5 17
5 17 -6 0 -6 -9 -8 -23 -4 -30 6 -9 3 -8 -8 1 -14 11 -18 10 -28 -10 -11 -22
-10 -22 4 -4 9 11 16 16 16 10 0 -15 -14 -32 -30 -36 -17 -4 -50 -41 -50 -58
0 -6 5 -8 12 -4 6 4 8 3 4 -4 -3 -6 -15 -9 -26 -7 -11 2 -23 -1 -26 -7 -4 -7
-2 -8 4 -4 7 4 12 2 12 -3 0 -6 -5 -11 -12 -11 -6 0 -8 -3 -5 -7 4 -3 -3 -11
-16 -17 -16 -8 -22 -20 -22 -43 0 -17 -4 -29 -9 -25 -5 3 -7 -2 -3 -11 3 -9 1
-19 -5 -23 -7 -4 -8 -3 -4 4 11 19 -5 14 -20 -5 -9 -13 -9 -22 -1 -31 5 -7 6
-12 1 -11 -19 3 -29 -2 -17 -9 8 -5 7 -12 -4 -27 -13 -17 -15 -17 -9 -2 3 11
2 16 -4 12 -6 -3 -10 -15 -10 -26 0 -11 -4 -18 -8 -15 -5 3 -9 -1 -9 -9 0 -8
5 -11 11 -8 6 4 5 0 -1 -9 -7 -8 -9 -19 -5 -23 4 -5 1 -5 -5 -1 -7 4 -21 2
-30 -4 -16 -10 -16 -11 2 -6 19 6 19 5 2 -8 -14 -10 -15 -15 -5 -19 10 -4 10
-6 -1 -6 -11 -1 -11 -4 0 -17 12 -15 11 -16 -10 -9 -16 5 -21 4 -17 -4 4 -6 2
-11 -4 -11 -6 0 -8 -5 -5 -10 4 -6 12 -7 18 -4 7 4 1 -5 -13 -21 -14 -16 -18
-24 -10 -20 12 7 13 6 3 -6 -9 -12 -10 -18 -1 -27 8 -8 5 -10 -13 -6 -13 2
-18 2 -11 -2 6 -3 12 -10 12 -15 0 -6 -4 -8 -9 -5 -11 7 -9 -13 2 -31 6 -9 3
-11 -9 -6 -13 5 -15 3 -9 -7 6 -10 4 -12 -10 -6 -15 5 -16 4 -5 -9 7 -8 9 -15
5 -15 -4 0 -2 -7 5 -15 11 -13 10 -14 -5 -9 -14 6 -16 4 -9 -7 12 -20 14 -40
3 -33 -5 3 -9 -2 -9 -12 0 -13 -3 -14 -14 -5 -11 9 -13 6 -10 -19 2 -20 0 -29
-7 -24 -6 3 -5 -4 3 -15 11 -18 11 -23 -1 -30 -11 -7 -11 -9 0 -14 9 -3 7 -6
-6 -6 -16 -1 -17 -3 -6 -10 19 -12 24 -44 6 -37 -8 3 -17 0 -21 -6 -4 -6 -3
-8 4 -4 6 3 13 2 16 -3 4 -5 -2 -12 -11 -14 -17 -4 -17 -5 0 -6 9 0 17 -6 17
-12 0 -6 -7 -8 -16 -5 -8 3 -13 2 -9 -3 3 -5 0 -11 -7 -13 -7 -3 -5 -7 6 -11
11 -5 15 -3 10 5 -5 7 -3 8 5 4 13 -9 6 -21 -12 -21 -14 0 -16 -55 -3 -74 8
-11 8 -13 -1 -7 -7 4 -13 2 -13 -3 0 -6 4 -11 9 -11 5 0 8 -8 6 -17 -2 -10 -4
-22 -4 -26 -1 -5 -5 -6 -10 -3 -12 8 -8 -47 4 -56 6 -5 5 -8 -3 -8 -10 0 -10
-5 -1 -22 10 -18 9 -20 -7 -14 -18 6 -18 5 -2 -7 10 -8 14 -17 10 -21 -10 -11
-11 -66 -1 -60 13 8 11 -10 -2 -23 -8 -8 -7 -13 2 -18 8 -6 10 -4 4 5 -5 9 -4
11 3 6 8 -5 8 -14 1 -34 -18 -46 -18 -71 0 -65 9 4 13 3 9 -2 -4 -4 -3 -14 4
-22 8 -10 8 -17 -1 -26 -10 -9 -11 -8 -5 7 6 15 4 17 -6 11 -9 -6 -11 -4 -5 6
5 8 4 11 0 6 -9 -8 -14 -56 -5 -55 28 2 32 -3 14 -18 -15 -12 -15 -14 -2 -11
22 8 30 -3 15 -21 -8 -11 -8 -14 0 -9 6 4 15 2 19 -4 4 -7 3 -9 -4 -5 -6 3
-13 2 -17 -4 -3 -5 -1 -10 5 -10 6 0 9 -4 6 -9 -4 -5 0 -12 6 -14 10 -4 10 -6
0 -6 -10 -1 -10 -6 -2 -21 6 -11 8 -20 4 -20 -3 0 0 -8 7 -17 12 -15 12 -16
-3 -10 -12 4 -15 2 -11 -9 3 -8 12 -13 19 -10 7 3 16 0 20 -6 4 -7 3 -8 -4 -4
-21 12 -13 -5 11 -25 20 -17 20 -18 2 -12 -17 6 -18 4 -8 -8 10 -12 10 -18 0
-28 -9 -10 -8 -11 7 -5 15 6 17 3 12 -14 -4 -12 -2 -23 5 -28 8 -5 10 -3 4 7
-5 8 1 5 13 -5 23 -20 30 -32 12 -21 -5 3 -10 -3 -10 -14 0 -12 4 -21 9 -21
10 0 7 -32 -4 -50 -4 -6 -1 -9 7 -8 8 2 12 -5 10 -17 l-4 -20 16 20 c15 19 16
19 9 1 -5 -15 -3 -17 8 -11 12 8 12 6 0 -8 -11 -14 -11 -18 5 -24 16 -6 16 -7
-2 -14 -18 -7 -18 -8 2 -8 12 -1 28 -9 35 -18 10 -11 10 -14 2 -9 -7 4 -13 2
-13 -3 0 -6 4 -11 10 -11 5 0 7 -6 5 -12 -3 -7 4 -24 15 -38 17 -21 19 -21 14
-5 -5 16 -4 17 4 5 8 -10 7 -19 -1 -29 -10 -12 -9 -13 1 -7 9 5 13 3 11 -5 -3
-29 2 -41 16 -36 8 4 17 1 21 -5 4 -7 3 -8 -4 -4 -19 11 -14 -5 6 -21 9 -8 11
-11 4 -8 -11 6 -12 3 -3 -12 6 -11 8 -23 5 -26 -3 -3 -3 -11 1 -17 5 -8 12 -7
24 4 15 14 17 13 17 -4 0 -10 -5 -16 -11 -12 -5 3 -4 -1 2 -10 7 -8 9 -19 5
-23 -4 -5 -1 -5 6 -1 7 4 12 2 12 -5 0 -8 4 -8 13 -1 10 9 13 5 11 -19 -2 -26
0 -28 13 -17 14 11 15 10 9 -10 -4 -12 -4 -22 1 -21 4 1 17 1 28 -1 l20 -1
-20 -9 c-16 -7 -17 -9 -3 -9 9 -1 20 -10 23 -21 3 -11 11 -20 16 -20 6 0 7 -4
4 -10 -3 -5 -1 -10 5 -10 6 0 8 -5 4 -12 -5 -8 0 -7 11 2 11 9 16 10 11 3 -4
-8 -2 -13 5 -13 6 0 9 -8 6 -19 -3 -14 -1 -18 9 -14 8 3 14 0 14 -7 0 -16 36
-61 43 -53 11 11 36 -18 30 -35 -4 -14 -3 -15 6 -2 9 13 12 13 23 1 11 -12 10
-13 -2 -6 -13 7 -13 6 0 -6 8 -8 20 -21 28 -29 7 -8 11 -9 7 -2 -3 6 -1 12 4
12 6 0 11 -4 11 -8 0 -5 7 -17 16 -28 8 -10 13 -14 10 -7 -4 6 -2 15 4 18 6 4
10 3 9 -2 -5 -19 13 -41 29 -36 9 4 14 3 11 -1 -4 -4 11 -27 34 -52 28 -31 43
-41 52 -34 17 14 27 0 12 -18 -8 -11 -8 -14 0 -9 6 4 15 2 18 -4 4 -6 18 -8
31 -5 13 4 24 3 24 -2 0 -5 11 -15 25 -22 13 -7 22 -17 19 -21 -2 -4 0 -11 6
-14 6 -4 10 -3 9 2 -3 20 2 23 17 9 8 -9 12 -22 8 -28 -4 -7 -4 -10 1 -6 4 4
14 3 22 -3 17 -14 17 2 1 21 -7 8 0 4 17 -10 16 -14 32 -29 33 -33 2 -4 10 -3
17 3 11 9 12 7 8 -9 -3 -13 -1 -21 6 -21 7 0 9 4 6 10 -12 19 4 10 31 -17 26
-28 26 -28 13 -3 -11 23 -11 24 4 11 10 -7 17 -20 17 -27 0 -8 5 -14 11 -14 5
0 8 4 4 9 -3 5 0 13 6 17 8 4 9 3 5 -4 -4 -7 -2 -12 4 -12 6 0 9 -4 6 -9 -3
-4 11 -6 30 -4 23 2 33 0 29 -7 -3 -5 -1 -10 4 -10 6 0 11 5 11 10 0 6 5 10
11 10 5 0 8 -4 5 -9 -6 -8 43 -36 58 -32 4 1 14 -3 20 -9 7 -5 16 -7 20 -3 14
14 36 11 34 -5 -2 -9 2 -17 9 -17 6 0 15 -3 19 -7 4 -4 13 -3 21 3 10 9 13 7
14 -7 0 -11 3 -13 6 -7 3 10 10 10 25 2 11 -6 18 -7 15 -2 -4 5 0 10 8 10 8 0
12 -4 9 -9 -5 -8 10 -12 30 -9 4 1 14 -4 22 -10 8 -6 15 -9 15 -5 1 3 3 11 4
16 1 6 3 13 4 17 0 4 6 2 13 -5 7 -7 23 -12 36 -12 15 0 21 -4 16 -12 -5 -7
-3 -8 6 -3 10 6 12 3 7 -11 -7 -17 -6 -18 6 -2 13 16 15 16 32 0 10 -9 15 -12
12 -7 -3 6 11 16 31 22 31 10 34 9 19 -2 -16 -12 -16 -13 3 -18 11 -3 18 -1
14 4 -3 5 -1 9 5 9 5 0 12 -4 15 -9 6 -10 56 -9 73 2 6 4 14 1 17 -5 5 -11 7
-11 12 0 3 6 11 9 17 5 20 -13 36 -12 48 3 10 12 15 12 37 -2 13 -9 21 -11 17
-5 -4 8 2 10 19 7 29 -5 33 2 14 24 -7 8 -4 7 8 -3 24 -20 40 -11 21 12 -11
14 -10 14 6 2 10 -8 16 -19 13 -26 -2 -6 2 -12 10 -12 7 0 10 5 7 10 -4 6 1 8
11 4 10 -4 15 -3 11 3 -4 6 9 10 29 10 22 0 36 5 36 13 0 6 5 4 11 -5 5 -10
15 -18 22 -18 7 0 6 4 -3 10 -8 5 -13 10 -10 11 3 0 13 2 23 4 11 2 15 -1 10
-8 -4 -7 1 -6 10 2 11 9 17 9 17 2 0 -6 9 -3 20 7 12 9 25 18 30 18 6 1 15 2
21 3 5 0 7 6 3 13 -4 7 -3 8 5 4 6 -4 9 -13 5 -19 -3 -7 2 -3 10 7 9 11 16 15
16 10 0 -6 7 -11 15 -11 8 0 12 4 9 9 -3 4 1 8 8 8 7 0 24 3 38 6 20 5 22 4
10 -6 -13 -10 -13 -11 0 -7 8 2 15 11 15 20 0 9 4 16 10 14 5 -1 9 -8 7 -14
-2 -7 9 -2 22 12 22 22 29 24 47 14 13 -7 19 -7 15 -1 -3 6 -2 13 4 17 5 3 10
1 10 -5 0 -6 4 -9 10 -5 5 3 6 13 3 23 -6 16 -6 16 11 0 9 -10 19 -18 21 -18
3 0 1 8 -2 18 -6 15 -5 15 10 3 15 -12 17 -12 11 3 -5 12 -2 15 12 9 13 -5 15
-3 9 8 -6 11 -5 12 6 2 7 -7 18 -13 23 -13 6 0 4 5 -4 10 -13 8 -13 11 -1 22
10 10 12 10 7 1 -4 -7 -2 -13 3 -13 6 0 11 6 11 14 0 8 9 12 26 10 20 -2 24 1
20 13 -5 13 -4 14 9 3 12 -10 16 -9 21 3 3 9 3 20 1 24 -3 5 3 9 13 9 11 0 16
-5 12 -11 -4 -6 0 -3 9 7 9 9 19 14 23 11 3 -3 12 0 21 7 8 7 15 9 15 5 0 -5
8 -1 18 8 9 8 22 15 27 15 6 0 15 9 21 22 8 15 13 18 17 8 4 -9 6 -7 6 5 1 9
6 17 12 17 5 0 7 6 3 13 -5 8 -2 7 9 -2 15 -12 17 -12 11 3 -4 12 0 16 15 16
15 0 21 5 19 17 -2 14 4 18 24 17 15 -1 25 3 22 8 -3 4 -10 5 -16 2 -7 -4 -8
-2 -4 4 4 6 13 9 22 5 8 -3 14 -2 13 3 -4 21 2 28 12 14 9 -12 10 -11 6 6 -4
17 -1 20 14 17 11 -3 20 0 20 6 3 26 4 30 13 38 5 5 6 2 1 -6 -5 -9 -3 -12 6
-9 8 3 13 11 11 18 -3 11 0 11 12 1 13 -11 15 -10 11 8 -2 12 0 19 6 16 5 -4
9 -1 9 4 0 6 7 11 15 11 8 0 14 5 12 12 -1 7 3 12 10 13 15 0 28 13 28 28 1 7
7 11 15 9 11 -3 11 0 0 13 -11 13 -10 14 5 9 12 -5 16 -4 12 3 -4 6 1 14 10
17 15 6 15 8 3 16 -13 8 -12 10 3 10 10 0 16 4 12 9 -3 5 0 13 6 17 8 5 10 2
5 -7 -4 -8 -1 -6 7 3 8 10 18 14 23 10 4 -4 3 0 -4 9 -12 16 -7 29 12 29 6 0
4 -5 -4 -11 -13 -9 -13 -10 0 -6 8 2 15 10 15 18 0 8 9 18 20 22 16 7 17 10 5
17 -13 8 -12 10 3 10 12 0 16 4 11 13 -6 9 -4 9 8 -1 14 -11 15 -8 12 25 -3
37 -3 38 11 13 14 -24 20 -16 16 19 -2 7 2 10 7 7 6 -3 13 1 16 10 3 8 2 12
-4 9 -6 -3 -10 -4 -10 0 0 8 33 59 43 66 5 4 6 17 3 30 -3 13 -3 18 0 12 3 -7
13 -13 22 -13 15 0 15 2 2 10 -13 8 -13 11 -1 22 12 11 12 10 6 -2 -8 -13 -7
-13 9 -1 13 11 14 16 4 22 -12 8 -4 13 15 10 5 -1 5 8 2 20 -6 17 -4 21 7 16
11 -4 14 1 12 20 -2 17 2 23 11 19 11 -4 12 0 4 21 -9 24 -8 25 7 12 15 -12
17 -12 12 1 -3 8 2 21 11 28 14 12 14 13 -3 8 -16 -6 -17 -4 -6 9 7 8 15 13
19 11 4 -3 7 4 7 14 0 10 -4 16 -8 14 -4 -3 -8 0 -8 5 0 6 8 11 18 11 13 0 14
2 3 9 -11 7 -11 13 3 32 9 13 19 23 22 21 3 -2 9 0 12 4 4 4 1 4 -5 0 -14 -8
-18 6 -6 18 11 10 13 37 2 31 -5 -4 -6 1 -3 9 3 9 11 16 18 16 6 0 4 5 -4 10
-13 9 -13 10 0 10 12 0 12 2 2 9 -10 6 -8 10 10 16 12 4 27 7 31 6 5 -1 6 3 2
9 -5 8 -11 8 -20 0 -11 -9 -14 -7 -12 9 0 11 4 18 7 16 3 -1 10 3 17 10 9 10
9 15 1 17 -8 3 -7 11 2 27 6 13 8 21 3 18 -5 -3 -9 5 -9 18 0 13 4 21 8 19 5
-3 5 -10 2 -16 -4 -7 -2 -8 4 -4 9 5 9 13 2 26 -14 26 -13 30 8 31 11 1 9 4
-8 9 -16 5 -19 8 -8 9 9 1 20 6 24 13 5 7 3 8 -6 3 -10 -6 -12 -4 -7 9 4 10 7
20 7 22 0 3 6 2 13 -2 9 -6 9 -4 0 6 -11 12 -16 11 -29 -6 -15 -18 -15 -17 -1
6 9 14 21 23 29 22 7 -2 10 0 6 4 -4 4 -2 14 4 23 10 13 9 13 -7 -1 -15 -12
-24 -14 -35 -7 -12 9 -11 10 4 5 13 -4 17 -2 13 7 -3 8 -1 20 5 28 7 11 8 9 3
-6 -5 -16 -4 -17 6 -8 10 10 9 16 -2 29 -13 16 -12 17 6 11 19 -7 19 -6 2 7
-15 11 -15 15 -3 19 15 6 16 23 3 45 -8 12 -2 16 18 13 6 -1 2 5 -8 13 -14 10
-15 15 -5 19 10 4 10 6 -1 6 -11 1 -11 4 -1 16 9 11 9 15 1 15 -7 0 -9 5 -4
13 11 18 13 38 2 31 -13 -7 -11 10 2 23 8 8 7 13 -2 18 -8 6 -10 4 -4 -6 5 -8
4 -11 -1 -6 -14 13 -11 31 6 44 13 10 11 12 -8 8 -21 -4 -22 -2 -10 13 7 9 18
20 23 24 16 12 -4 9 -28 -4 -20 -10 -21 -9 -9 5 11 13 10 17 -5 26 -25 14 -7
14 20 -1 19 -10 20 -9 10 4 -7 8 -9 19 -5 23 4 5 2 5 -4 2 -7 -4 -15 0 -18 9
-3 8 -2 12 3 9 5 -3 12 -1 16 5 6 9 -8 14 -28 11 -5 -1 -6 3 -2 9 3 6 11 8 16
5 5 -3 6 1 3 9 -3 9 -11 13 -18 9 -6 -3 -2 4 9 17 11 13 15 20 8 17 -6 -4 -14
-3 -18 3 -3 5 -1 10 4 10 6 0 11 5 11 11 0 5 -4 8 -8 5 -5 -3 -9 1 -9 9 0 8 3
12 7 10 3 -2 6 5 6 15 0 10 -5 16 -10 13 -5 -4 -7 1 -3 10 3 9 1 19 -5 23 -7
5 -8 2 -3 -6 5 -9 4 -11 -4 -6 -6 4 -9 11 -6 16 3 4 -1 11 -7 14 -7 3 -2 4 12
1 14 -3 19 -2 12 1 -6 3 -9 11 -6 16 5 7 2 8 -6 3 -10 -6 -12 -4 -6 10 5 15 4
16 -9 5 -13 -11 -16 -11 -13 1 2 8 8 17 13 21 6 5 6 8 -2 8 -6 0 -11 13 -11
30 1 18 5 27 12 24 6 -3 0 4 -13 15 -13 12 -23 32 -23 46 0 21 -3 23 -15 14
-11 -10 -12 -8 -4 14 7 18 7 28 -1 33 -7 5 -8 3 -3 -6 5 -9 4 -11 -4 -6 -8 5
-9 12 -2 20 6 7 6 17 1 26 -5 8 -7 17 -4 21 2 4 -6 5 -18 2 -23 -5 -23 -5 -3
11 11 10 14 15 7 11 -12 -6 -36 40 -28 54 3 4 -5 8 -17 8 -17 2 -19 0 -7 -7 8
-5 10 -10 4 -10 -16 0 -23 10 -17 26 3 8 10 11 17 8 6 -3 3 1 -6 9 -14 11 -15
16 -5 27 9 10 9 11 0 6 -8 -4 -13 -1 -13 8 0 9 -4 16 -10 16 -5 0 -7 -8 -4
-17 5 -15 4 -15 -4 -3 -8 10 -7 18 0 28 9 10 8 12 -2 10 -9 -2 -15 8 -16 26
-2 15 -6 31 -10 35 -4 3 -4 -4 -1 -17 3 -12 1 -20 -4 -16 -5 3 -9 14 -9 25 0
11 -4 18 -8 15 -5 -3 -8 5 -8 17 1 14 -4 21 -13 19 -12 -3 -12 0 -2 12 11 13
10 15 -8 11 -12 -2 -19 0 -16 5 3 4 2 10 -2 13 -5 2 -2 2 5 1 6 -2 12 1 12 6
0 6 -5 10 -11 10 -5 0 -7 5 -3 12 4 7 3 8 -5 4 -16 -10 -43 14 -36 32 3 9 0
12 -9 9 -11 -4 -13 -1 -9 10 4 10 2 14 -4 10 -6 -4 -19 3 -29 16 -12 13 -13
17 -3 9 13 -9 16 -9 16 3 0 8 -3 12 -7 10 -8 -5 -64 31 -66 42 -5 27 -18 53
-26 53 -5 0 -6 4 -3 10 3 6 -1 7 -10 4 -10 -4 -15 -2 -13 7 2 8 -2 13 -9 12
-6 -2 -15 6 -18 17 -4 11 -14 20 -23 20 -15 0 -15 2 -2 10 13 8 12 10 -3 10
-10 0 -15 5 -12 10 4 6 2 9 -3 8 -5 -2 -24 12 -41 29 -27 29 -44 34 -23 7 4
-5 -1 -1 -10 9 -10 11 -15 24 -11 30 3 5 1 7 -5 4 -15 -10 -43 3 -35 16 4 6
-2 8 -16 4 -18 -4 -20 -3 -10 9 9 11 8 14 -7 15 -11 1 -23 1 -28 0 -5 -1 -3 6
5 15 9 11 9 15 2 10 -7 -4 -23 0 -35 10 -17 12 -18 15 -5 10 11 -3 16 -2 12 4
-3 6 -16 10 -28 10 -12 0 -31 11 -41 25 -10 14 -24 25 -30 25 -6 0 -4 -5 4
-10 9 -6 11 -10 3 -10 -7 0 -20 12 -28 28 -9 15 -13 18 -10 7 6 -18 5 -18 -15
3 -24 25 -39 30 -19 5 13 -15 12 -15 -8 -3 -12 8 -19 18 -17 22 5 8 -14 11
-46 9 -10 0 -11 1 -2 5 18 8 15 23 -5 20 -10 -2 -27 10 -39 26 -13 17 -24 24
-26 17 -3 -9 -9 -9 -25 0 -14 7 -24 8 -28 1 -3 -5 -12 -10 -18 -9 -9 0 -9 2 1
6 6 2 12 12 12 20 0 11 -3 13 -13 5 -8 -7 -18 -6 -32 5 -20 16 -20 16 0 9 15
-5 17 -4 9 4 -9 9 -17 9 -34 0 -12 -7 -20 -8 -16 -2 3 5 -1 13 -10 16 -8 3
-13 2 -10 -3 6 -10 -24 -25 -32 -16 -3 3 0 5 7 5 7 0 9 5 6 10 -4 6 -11 7 -17
4 -6 -4 -8 -3 -5 3 4 6 -6 16 -21 22 l-27 13 20 -23 20 -22 -22 14 c-13 8 -23
17 -23 22 0 4 -4 5 -10 2 -5 -3 -10 -1 -10 6 0 7 -7 4 -15 -7 -9 -12 -13 -13
-10 -4 4 12 -2 15 -29 15 -19 -1 -35 1 -34 4 2 19 -3 31 -13 31 -5 0 -8 -4 -5
-8 3 -5 -1 -9 -9 -9 -8 0 -12 4 -9 9 3 5 -12 9 -33 8 -93 -1 -93 -1 -87 17 5
17 5 17 -6 0 -9 -15 -14 -16 -27 -6 -8 7 -36 12 -61 11 -34 -2 -43 0 -32 8 11
7 4 8 -24 5 -21 -3 -42 -7 -46 -10 -11 -7 -41 5 -35 15 4 6 -19 5 -74 -2 -22
-2 -41 4 -36 12 3 6 4 10 1 10 -3 0 -8 -4 -11 -10z m-100 -31 c11 -16 1 -19
-13 -3 -7 8 -8 14 -3 14 5 0 13 -5 16 -11z m292 -4 c0 -8 -4 -12 -9 -9 -5 3
-6 10 -3 15 9 13 12 11 12 -6z m114 -12 c13 -16 12 -17 -3 -4 -10 7 -18 15
-18 17 0 8 8 3 21 -13z m-971 -102 c0 -14 -29 -21 -36 -9 -4 6 -3 8 4 4 6 -3
13 -2 17 4 8 12 15 13 15 1z m616 -36 c-3 -8 -1 -15 4 -15 6 0 10 4 10 9 0 4
13 7 30 5 16 -2 32 1 35 6 3 6 12 10 18 10 7 0 6 -4 -3 -11 -12 -8 -12 -9 5
-7 11 1 26 -2 34 -6 11 -7 13 -5 7 9 -6 18 -6 18 12 2 21 -19 32 -22 32 -6 0
5 -5 7 -12 3 -7 -4 -8 -3 -4 4 5 9 13 9 27 1 11 -6 27 -8 35 -5 8 3 17 -1 21
-10 3 -8 12 -13 19 -10 7 3 18 -3 23 -12 6 -9 11 -12 11 -7 0 12 40 18 40 6 0
-5 10 -8 23 -7 14 1 22 7 21 19 -1 9 2 14 7 11 5 -3 9 -11 9 -19 0 -7 10 -12
24 -11 13 0 21 6 18 11 -3 6 3 2 14 -7 14 -12 23 -15 31 -7 7 7 15 5 27 -6 9
-9 23 -15 30 -12 8 3 17 3 21 -1 4 -4 11 -8 16 -8 22 -3 23 -5 9 -15 -12 -9
-11 -10 5 -4 37 12 56 14 50 4 -4 -5 -11 -6 -17 -3 -7 4 -8 2 -4 -5 6 -9 14
-8 34 5 15 9 24 13 19 9 -4 -5 2 -19 14 -31 16 -17 26 -21 43 -14 13 4 29 4
36 0 8 -5 18 -6 22 -4 4 3 8 0 8 -5 0 -6 5 -11 11 -11 6 0 20 -10 31 -22 11
-13 17 -17 13 -10 -3 6 -2 12 3 12 5 0 14 -12 21 -26 10 -23 14 -24 28 -13 15
12 16 12 10 -5 -6 -16 -5 -17 8 -6 12 10 15 10 15 0 0 -7 7 -10 15 -7 8 4 17
1 21 -5 4 -7 3 -8 -4 -4 -7 4 -12 2 -12 -3 0 -6 7 -11 16 -11 9 0 12 -5 8 -12
-4 -6 -3 -8 4 -4 6 3 15 -2 21 -11 14 -24 14 -7 0 20 -11 22 -11 22 10 -1 12
-12 26 -20 31 -17 5 3 11 1 14 -4 4 -5 1 -13 -5 -17 -8 -5 -9 -3 -4 6 5 9 4
11 -4 6 -16 -10 -4 -26 14 -19 9 3 15 -1 15 -8 0 -11 3 -11 10 1 8 13 10 12
10 -2 0 -11 8 -18 19 -18 11 0 23 -4 26 -10 3 -5 0 -8 -7 -7 -7 2 -10 2 -5 0
4 -3 4 -9 1 -15 -4 -6 2 -5 15 1 11 7 22 9 22 6 1 -3 2 -11 3 -17 1 -7 7 -12
14 -11 7 2 11 -3 9 -10 -1 -6 5 -13 13 -13 8 -1 19 -2 24 -3 5 0 3 -7 -3 -15
-10 -12 -8 -14 11 -9 18 4 20 3 8 -6 -12 -9 -11 -11 9 -11 16 0 21 -4 18 -15
-4 -8 -1 -17 5 -21 7 -4 8 -3 4 4 -4 7 -3 12 1 12 5 0 17 -13 26 -30 10 -17
23 -27 31 -24 9 3 16 -5 20 -21 5 -20 12 -26 25 -22 15 4 18 0 16 -19 -2 -18
5 -27 26 -36 19 -8 24 -15 16 -20 -8 -5 -7 -8 5 -8 15 0 35 -34 30 -52 -1 -3
5 -9 14 -12 12 -5 13 -2 4 17 -10 20 -10 20 3 5 8 -10 18 -14 22 -10 4 4 3 -3
-4 -15 -8 -16 -8 -24 1 -29 7 -4 8 -3 4 4 -4 7 -2 12 3 12 6 0 11 -7 11 -16 0
-9 5 -12 13 -8 9 6 9 5 -1 -8 -10 -13 -9 -18 5 -29 9 -8 14 -9 10 -2 -4 6 -3
15 3 18 6 4 10 3 9 -2 -4 -26 2 -44 14 -37 7 5 6 0 -3 -11 -14 -17 -13 -18 3
-12 11 4 16 3 12 -3 -3 -6 -1 -10 4 -10 6 0 11 -13 11 -30 0 -16 5 -30 11 -30
5 0 7 5 3 12 -4 7 -3 8 5 4 6 -4 9 -12 6 -17 -4 -5 0 -9 7 -10 11 0 11 -2 0
-6 -10 -4 -7 -9 8 -20 17 -12 19 -17 9 -24 -10 -6 -11 -9 -1 -9 6 0 12 -7 12
-15 0 -8 5 -15 11 -15 5 0 7 5 3 12 -4 7 -3 8 5 4 9 -6 9 -11 1 -21 -8 -9 -6
-14 6 -19 10 -4 14 -12 10 -22 -4 -11 -2 -15 7 -11 10 4 14 -2 13 -16 -1 -12
5 -28 14 -35 8 -8 9 -11 3 -7 -7 3 -13 1 -13 -4 0 -6 5 -11 11 -11 6 0 7 -5 2
-12 -11 -19 -13 -39 -2 -32 5 3 9 0 9 -7 0 -7 3 -9 6 -6 4 4 1 15 -7 24 -12
17 -11 16 7 0 19 -18 19 -18 -1 -34 -15 -11 -16 -14 -3 -10 10 3 19 -1 24 -11
13 -32 12 -41 -4 -35 -13 4 -13 2 2 -9 13 -10 17 -22 13 -37 -5 -21 -3 -22 21
-16 25 6 25 5 8 -8 -17 -13 -17 -14 0 -31 12 -12 14 -20 6 -25 -7 -4 -8 -12
-2 -20 4 -8 6 -21 2 -29 -4 -11 -1 -13 8 -7 10 6 11 4 4 -6 -13 -21 -14 -38
-2 -46 7 -4 8 -1 3 8 -5 8 -4 10 0 6 12 -10 15 -38 7 -51 -15 -24 -10 -37 11
-31 12 4 17 3 12 -2 -9 -7 -12 -28 -5 -35 7 -9 7 -68 0 -68 -4 0 -7 -8 -5 -17
1 -10 8 -17 15 -15 6 1 9 -2 5 -8 -3 -6 -11 -8 -16 -5 -5 4 -9 1 -9 -4 0 -6 4
-11 9 -11 11 0 9 -80 -3 -99 -6 -10 -6 -12 2 -7 7 4 12 2 12 -4 0 -6 -7 -13
-16 -17 -13 -5 -13 -7 -2 -14 7 -5 14 -17 14 -28 1 -11 -3 -18 -8 -15 -4 3 -6
10 -3 15 10 15 -2 10 -16 -8 -10 -11 -10 -14 -2 -9 17 9 17 -6 1 -23 -9 -10
-9 -12 -1 -7 17 9 28 -14 13 -27 -10 -9 -11 -9 -6 1 10 18 1 15 -15 -5 -9 -10
-9 -14 -2 -10 7 5 17 -2 24 -15 11 -21 11 -22 -5 -9 -14 12 -17 12 -14 0 2 -7
9 -20 16 -27 13 -15 8 -32 -11 -32 -8 0 -8 3 1 9 11 7 11 9 -1 14 -10 4 -13
-2 -13 -18 1 -13 5 -27 9 -31 4 -4 -1 -13 -11 -21 -9 -8 -12 -12 -5 -9 19 10
22 -17 4 -38 -11 -13 -11 -17 -2 -11 9 5 12 3 9 -6 -3 -8 -10 -13 -15 -12 -5
1 -10 -4 -10 -12 0 -8 7 -11 16 -7 14 5 14 4 1 -10 -8 -9 -17 -14 -19 -12 -2
2 -9 -6 -16 -19 -13 -25 -8 -60 8 -50 6 3 7 1 3 -6 -4 -6 -12 -9 -17 -6 -13 9
-11 -29 3 -43 7 -7 8 -12 4 -12 -5 0 -15 8 -22 18 -13 16 -14 16 -7 -2 4 -13
3 -17 -5 -12 -8 5 -10 2 -6 -8 3 -9 11 -13 18 -10 6 3 0 -4 -14 -15 -21 -18
-23 -22 -10 -31 12 -8 12 -10 1 -10 -10 0 -11 -3 -2 -13 8 -11 5 -16 -15 -26
-22 -10 -24 -14 -13 -27 10 -12 10 -15 -2 -12 -8 2 -13 -4 -13 -15 1 -9 -5
-17 -13 -17 -8 0 -11 -5 -8 -10 4 -6 11 -7 17 -4 7 4 8 2 4 -4 -4 -6 -13 -9
-20 -6 -7 3 -16 -2 -20 -11 -3 -9 -2 -14 3 -10 5 3 8 -2 7 -11 -1 -9 -10 -20
-19 -26 -9 -5 -17 -16 -17 -24 0 -8 -6 -17 -14 -20 -8 -3 -12 -12 -9 -20 3 -8
0 -14 -6 -14 -6 0 -11 -5 -11 -11 0 -5 6 -7 13 -4 6 4 4 0 -5 -8 -10 -8 -17
-16 -15 -18 1 -2 -4 3 -11 11 -11 13 -12 10 -8 -16 5 -26 2 -33 -14 -37 -11
-3 -20 -11 -20 -17 0 -9 5 -9 18 1 15 13 16 12 3 -4 -8 -10 -20 -16 -28 -13
-8 3 -11 1 -8 -4 3 -6 2 -10 -4 -10 -5 0 -8 -9 -6 -19 3 -15 -2 -19 -21 -16
-19 2 -22 0 -13 -11 9 -11 7 -14 -7 -14 -16 0 -17 -2 -4 -10 12 -8 11 -10 -7
-10 -16 0 -23 -6 -23 -20 0 -11 -7 -23 -15 -26 -8 -4 -15 -12 -15 -20 0 -13
-13 -19 -33 -15 -5 1 -6 -3 -2 -9 3 -6 -4 -23 -16 -38 -12 -15 -19 -19 -16 -9
17 42 17 50 3 25 -9 -15 -27 -39 -41 -54 -14 -15 -25 -31 -25 -35 0 -5 -5 -9
-12 -9 -7 0 -7 6 3 18 8 10 0 2 -18 -17 -17 -19 -30 -38 -27 -42 2 -4 -6 -5
-18 -2 -13 3 -20 3 -16 -2 8 -9 -63 -76 -74 -69 -4 3 -8 -2 -8 -11 0 -9 -5
-13 -10 -10 -6 4 -7 11 -4 17 4 7 2 8 -5 4 -6 -4 -9 -12 -6 -17 4 -5 -1 -10
-9 -10 -30 -3 -34 -4 -43 -13 -5 -5 -3 -6 5 -2 6 4 12 3 12 -2 0 -17 -13 -22
-28 -9 -13 10 -14 9 -7 -2 6 -11 3 -13 -14 -8 -18 4 -20 3 -11 -8 9 -11 6 -13
-14 -11 -18 2 -23 -1 -21 -14 3 -13 -2 -16 -22 -12 -20 4 -24 2 -18 -9 7 -11
6 -12 -7 -2 -12 11 -18 10 -32 -5 -9 -10 -13 -22 -9 -26 4 -4 0 -4 -10 0 -13
5 -16 2 -11 -12 5 -15 4 -16 -4 -5 -6 8 -20 15 -31 16 -20 2 -20 1 -4 -18 10
-11 12 -17 6 -13 -8 4 -13 2 -13 -5 0 -9 -3 -9 -14 0 -11 9 -16 9 -22 0 -5 -8
-3 -10 7 -4 8 5 10 4 6 0 -9 -11 -39 -16 -33 -6 6 10 -37 6 -55 -5 -7 -5 -18
-9 -23 -9 -5 0 -11 -7 -13 -15 -4 -12 -3 -12 5 -2 8 11 10 11 15 -1 6 -16 -9
-17 -30 -4 -8 5 -13 3 -13 -5 0 -10 -2 -10 -9 1 -6 9 -10 10 -16 2 -5 -9 -10
-9 -21 0 -12 10 -13 9 -8 -6 6 -14 3 -16 -16 -10 -19 6 -22 4 -17 -9 8 -21 3
-20 -19 2 -17 16 -17 16 -11 0 3 -10 2 -20 -3 -23 -6 -4 -10 -1 -10 6 0 9 -4
9 -15 -1 -8 -6 -18 -9 -24 -6 -5 3 -12 0 -14 -6 -3 -7 -6 -4 -6 6 -1 20 -1 20
-16 0 -14 -18 -16 -18 -29 -1 -12 15 -14 16 -20 2 -3 -8 -10 -15 -16 -15 -6 0
-8 5 -5 10 3 6 1 10 -6 10 -6 0 -9 -8 -6 -19 5 -22 -20 -23 -33 -1 -5 8 -12
11 -16 7 -4 -3 -2 -12 4 -20 9 -10 6 -13 -13 -13 -14 0 -25 4 -25 9 0 5 8 6
18 3 14 -5 14 -4 -2 9 -11 8 -25 15 -30 15 -6 0 -4 -5 4 -10 13 -8 13 -10 -2
-10 -9 0 -23 -7 -31 -15 -13 -13 -16 -13 -21 1 -4 9 -11 12 -18 7 -19 -11 -37
-12 -43 -3 -3 5 -12 7 -20 4 -8 -4 -12 -11 -9 -16 4 -6 -1 -6 -13 1 -11 6 -23
7 -27 4 -3 -3 -6 -2 -6 4 0 10 -47 10 -57 0 -2 -3 -18 -1 -34 5 -21 7 -33 7
-43 -1 -10 -8 -16 -9 -21 -1 -3 6 -11 7 -17 4 -7 -4 -8 -2 -4 5 4 6 12 9 17 6
5 -4 6 2 2 11 -4 11 -8 13 -11 6 -2 -7 -8 -10 -13 -6 -5 3 -9 0 -9 -5 0 -6 -7
-11 -15 -11 -8 0 -15 7 -15 15 0 20 -19 19 -27 -1 -5 -14 -8 -13 -20 7 -8 13
-12 17 -10 8 3 -9 -1 -16 -9 -16 -8 0 -14 6 -14 14 0 16 -16 17 -26 1 -5 -7
-2 -8 7 -3 8 5 11 4 6 0 -11 -13 -46 -13 -44 -1 1 5 -6 12 -17 14 -13 3 -16 0
-10 -10 6 -10 5 -11 -8 -1 -8 7 -17 10 -21 7 -3 -3 -10 3 -16 14 -7 14 -17 18
-31 15 -13 -3 -20 0 -20 8 0 10 -3 10 -12 1 -7 -7 -17 -12 -22 -12 -6 0 -4 5
4 11 12 8 7 9 -17 6 -22 -2 -33 1 -33 9 0 7 3 14 8 17 4 2 1 2 -6 0 -8 -2 -19
0 -25 4 -22 14 -36 11 -31 -5 5 -14 4 -14 -6 1 -6 9 -18 17 -26 17 -17 0 -46
25 -38 33 3 3 0 8 -7 13 -8 4 -10 3 -5 -4 14 -23 -18 -12 -47 16 -17 15 -27
21 -23 15 4 -8 1 -13 -9 -13 -10 0 -13 5 -9 12 5 8 0 9 -14 6 -12 -4 -22 -2
-22 4 0 5 -6 6 -13 2 -7 -5 -6 0 3 11 8 10 10 16 4 12 -7 -4 -15 0 -18 9 -3 8
-2 12 3 9 5 -3 13 0 16 6 4 5 14 8 22 5 9 -4 11 -2 7 6 -5 8 -2 9 11 4 16 -6
16 -4 4 11 -9 11 -10 14 -1 9 7 -4 12 -2 12 6 0 9 3 9 10 -2 8 -13 10 -12 10
3 0 9 5 17 11 17 5 0 7 5 3 11 -4 8 0 8 15 0 18 -10 20 -9 14 5 -5 14 -2 16
14 12 17 -4 19 -1 16 21 -3 16 -1 21 4 14 6 -8 12 -8 25 1 10 7 14 17 10 21
-4 5 -2 5 4 2 6 -3 18 3 27 14 14 15 21 17 36 9 18 -9 19 -7 15 18 l-4 27 15
-25 c13 -23 14 -23 15 -5 1 11 4 14 7 7 2 -6 10 -9 16 -5 8 5 8 2 0 -8 -11
-13 -9 -15 7 -14 11 1 23 5 27 10 5 4 2 5 -6 0 -9 -5 -12 -4 -8 2 4 6 18 8 32
6 13 -3 22 -9 20 -14 -5 -7 35 -4 63 6 6 2 12 -3 13 -13 0 -10 3 -12 6 -4 6
15 33 16 33 1 0 -6 7 -3 16 5 20 20 19 20 44 -6 19 -21 21 -21 14 -3 -7 18 -6
19 11 5 11 -9 16 -10 11 -2 -4 7 -1 12 9 12 10 0 13 -5 9 -12 -6 -10 -4 -10 7
-2 18 13 59 16 59 3 0 -14 28 -11 33 4 4 7 6 6 6 -5 1 -9 -5 -18 -11 -21 -7
-3 -3 -4 8 -4 14 1 20 6 17 14 -4 9 0 11 11 7 9 -3 13 -11 9 -18 -3 -6 -1 -6
8 2 19 17 46 15 58 -5 6 -11 11 -13 11 -5 0 7 5 10 12 6 6 -4 8 -3 5 3 -4 6 6
15 21 22 22 9 24 9 12 -1 -8 -7 -16 -20 -18 -28 -3 -12 -1 -12 9 -3 10 10 16
10 28 0 12 -9 13 -9 7 1 -4 6 -5 12 -2 12 2 0 12 3 22 7 11 4 15 3 11 -4 -4
-7 0 -10 10 -8 10 2 21 4 26 4 4 1 7 9 7 19 0 14 2 15 10 2 7 -10 10 -11 10
-2 0 8 9 11 24 8 18 -3 23 -1 19 10 -3 8 0 14 6 14 6 0 11 -4 11 -10 0 -5 5
-10 11 -10 5 0 7 5 3 11 -4 8 1 9 17 4 17 -4 20 -3 10 3 -7 5 -10 15 -6 21 5
9 11 9 23 -1 13 -11 14 -11 8 1 -7 10 -3 12 15 6 14 -3 19 -3 12 2 -8 6 -9 14
-3 23 7 11 10 11 10 2 0 -10 3 -10 14 0 8 7 12 16 10 19 -2 3 3 6 11 6 8 0 12
-4 9 -9 -3 -4 0 -8 5 -8 10 0 16 22 12 44 -1 5 4 4 13 -3 11 -9 16 -9 22 0 5
8 3 9 -6 4 -8 -5 -11 -4 -7 3 4 5 15 8 25 6 9 -2 31 8 47 22 17 14 23 23 15
18 -8 -4 -11 -3 -7 1 10 12 39 16 32 5 -3 -5 -1 -11 4 -14 5 -4 8 5 6 19 -1
14 2 28 8 32 6 3 7 1 3 -5 -3 -6 -2 -13 3 -16 5 -3 11 1 15 9 3 8 11 15 18 15
9 0 8 -3 -2 -10 -17 -11 -10 -13 14 -4 9 3 12 13 9 22 -4 13 -3 13 9 -2 14
-17 15 -17 21 -2 6 14 10 15 28 5 17 -9 20 -8 14 2 -6 9 -3 10 10 5 15 -5 16
-4 5 9 -11 14 -10 14 13 6 17 -7 28 -7 32 0 4 5 22 8 41 6 20 -3 34 0 34 7 0
6 5 4 10 -4 8 -12 10 -12 11 5 0 11 3 14 6 7 4 -10 8 -10 19 -1 8 6 22 9 33 6
15 -3 17 0 13 17 -4 21 -4 21 11 1 15 -18 16 -18 17 -2 0 15 3 16 21 6 12 -6
19 -7 15 -1 -3 5 1 13 10 16 8 3 12 11 8 18 -5 7 -1 9 14 6 15 -4 19 -2 15 8
-4 10 0 12 11 8 12 -5 15 -2 9 12 -4 12 -3 15 5 10 7 -4 12 -1 12 8 0 8 8 19
17 24 21 12 27 46 7 38 -9 -4 -12 -2 -8 5 3 6 15 9 25 6 16 -4 17 -2 9 14 -9
15 -8 17 7 12 15 -6 16 -4 5 9 -10 13 -10 18 -1 24 8 5 9 3 4 -6 -5 -9 -4 -11
4 -6 9 6 9 11 -1 24 -11 13 -11 14 1 7 11 -6 13 -4 7 10 -5 14 -4 15 7 7 10
-8 13 -6 14 9 1 12 -3 17 -10 13 -7 -3 -4 1 5 9 14 11 15 16 5 27 -10 10 -8
12 8 6 16 -6 17 -5 8 5 -10 10 -10 16 0 28 9 12 9 13 0 7 -8 -4 -13 -1 -13 9
0 9 5 13 10 10 6 -3 10 -1 10 4 0 6 -4 11 -8 11 -5 0 -9 7 -9 15 0 10 4 12 12
5 9 -8 14 -6 19 5 4 11 2 14 -6 9 -8 -5 -9 -2 -5 10 6 14 3 17 -8 12 -9 -3
-13 -2 -10 4 3 6 13 10 21 10 17 0 18 12 2 29 -11 11 -10 13 3 8 17 -6 17 12
2 53 -11 29 -11 39 0 34 17 -6 12 76 -5 87 -9 6 -6 9 12 9 20 0 22 2 10 10
-13 9 -13 11 0 20 8 5 10 10 5 10 -6 0 -17 -6 -24 -12 -10 -11 -11 -9 -5 6 6
15 4 17 -6 11 -9 -6 -11 -4 -6 4 5 7 18 16 30 21 20 8 20 9 -4 10 -18 0 -21 3
-11 9 7 5 11 15 9 22 -3 8 -1 23 5 34 9 18 9 19 -8 5 -17 -14 -18 -14 -6 8 7
12 17 20 24 17 7 -4 1 3 -13 15 -14 12 -25 29 -25 39 0 9 -6 15 -15 13 -10 -3
-9 3 5 19 11 12 14 19 8 15 -8 -4 -13 -1 -13 9 0 10 5 13 12 9 7 -5 8 -3 2 7
-4 8 -9 20 -11 28 -2 18 -24 31 -38 24 -5 -3 -5 0 2 7 9 10 9 18 1 34 -6 12
-10 21 -7 21 2 0 -4 11 -14 25 -9 13 -17 19 -17 13 0 -6 7 -19 16 -27 8 -9 12
-16 7 -16 -16 0 -33 24 -33 45 0 12 -3 25 -7 29 -5 4 -8 11 -8 14 -1 19 -28
52 -43 53 -14 0 -14 2 3 9 11 5 15 9 8 9 -20 1 -54 44 -44 54 13 13 2 37 -15
37 -8 0 -14 5 -14 11 0 5 -5 7 -12 3 -7 -4 -8 -3 -4 5 5 7 13 9 20 4 7 -4 4
-1 -6 9 -13 12 -15 18 -6 22 7 4 3 4 -10 2 -18 -4 -21 -2 -12 9 8 10 6 15 -9
20 -10 3 -22 13 -25 22 -6 14 -4 14 10 2 16 -13 16 -12 4 8 -10 16 -18 19 -26
12 -9 -8 -11 -5 -7 10 3 13 1 21 -6 21 -7 0 -9 -4 -6 -10 3 -5 1 -10 -5 -10
-7 0 -9 8 -5 22 6 16 4 20 -8 15 -11 -4 -15 -1 -12 13 2 11 -1 23 -7 26 -7 4
-8 2 -4 -4 4 -7 2 -10 -7 -6 -8 3 -13 16 -11 30 1 14 0 23 -3 20 -3 -3 -14 -1
-25 5 -16 9 -17 13 -6 27 7 9 9 14 4 10 -9 -8 -41 20 -41 35 0 6 -7 12 -15 14
-13 4 -13 3 0 -6 10 -7 11 -11 3 -11 -11 0 -42 48 -44 67 -1 14 -18 38 -19 28
0 -6 6 -17 13 -24 10 -10 9 -11 -5 -6 -18 7 -34 42 -24 52 10 10 -33 35 -47
27 -6 -4 -9 -4 -5 1 4 4 2 15 -5 24 -11 14 -10 14 6 2 15 -12 17 -12 11 3 -3
9 -10 16 -16 16 -5 0 -6 4 -3 10 3 5 0 7 -8 4 -8 -3 -20 2 -27 11 -11 13 -10
15 6 9 18 -5 18 -5 1 6 -9 6 -22 8 -29 4 -7 -4 -8 -3 -4 4 4 7 3 12 -2 12 -5
0 -12 10 -15 21 -4 13 -11 20 -20 16 -10 -4 -13 2 -11 19 2 22 0 23 -14 12
-14 -11 -15 -10 -9 6 5 13 3 17 -7 13 -10 -4 -14 0 -11 14 4 18 2 19 -12 7
-14 -11 -16 -11 -11 2 5 17 -47 74 -61 65 -7 -3 -8 0 -5 10 5 11 2 14 -10 9
-12 -5 -15 -2 -9 12 5 14 3 16 -11 11 -11 -5 -15 -3 -10 5 5 8 2 9 -11 4 -14
-5 -16 -4 -7 7 12 14 7 27 -10 27 -5 0 -6 -5 -2 -12 4 -7 3 -8 -4 -4 -7 4 -12
12 -12 17 0 15 -26 39 -34 32 -3 -4 -6 -2 -6 4 0 5 -11 15 -25 21 -14 6 -24
15 -23 19 0 5 -2 16 -7 26 -5 13 -11 15 -20 7 -9 -8 -16 -3 -25 20 -7 16 -17
30 -22 30 -5 0 -6 -6 -2 -12 4 -7 -2 -4 -14 6 -12 11 -22 25 -22 33 0 7 -7 13
-16 13 -8 0 -13 4 -10 9 3 5 -1 11 -9 14 -10 4 -12 1 -8 -11 6 -14 5 -15 -9
-2 -9 8 -14 18 -11 23 2 4 -2 7 -9 7 -10 0 -9 3 2 11 12 8 10 9 -7 4 -16 -4
-23 -2 -23 7 0 10 -3 9 -10 -2 -7 -11 -10 -11 -10 -2 0 8 -5 10 -12 6 -10 -6
-10 -5 -1 8 11 12 9 17 -13 27 -15 6 -23 7 -19 1 3 -5 1 -10 -4 -10 -6 0 -11
7 -11 15 0 8 -5 15 -11 15 -5 0 -8 -4 -4 -9 3 -5 0 -13 -6 -17 -7 -4 -9 -3 -5
4 3 6 2 13 -4 17 -6 4 -7 11 -4 17 4 6 -3 5 -16 -2 -15 -8 -20 -8 -16 -1 4 6
2 11 -4 11 -6 0 -8 5 -4 12 4 7 3 8 -5 4 -6 -4 -8 -12 -5 -18 4 -6 -3 -4 -16
5 -18 12 -28 14 -44 5 l-21 -11 20 24 c11 13 13 18 5 12 -17 -15 -34 -17 -25
-3 5 9 -24 15 -49 11 -4 -1 -15 4 -24 11 -9 8 -13 8 -9 2 4 -7 0 -14 -8 -18
-8 -3 -17 0 -21 6 -5 7 -2 8 6 3 9 -5 11 -4 6 4 -6 9 -11 9 -22 0 -11 -9 -17
-9 -28 0 -8 7 -17 8 -20 3 -3 -5 -15 -12 -26 -15 -19 -5 -20 -3 -8 11 12 15
11 16 -4 3 -10 -7 -18 -10 -18 -7 0 4 -9 2 -20 -4 -11 -6 -17 -16 -14 -25 4
-8 1 -15 -5 -15 -6 0 -11 6 -12 13 0 9 -2 9 -6 -1 -4 -10 -8 -10 -19 -1 -12
10 -13 8 -8 -7 6 -15 4 -17 -6 -7 -14 13 -40 7 -40 -9 0 -6 8 -4 18 3 15 12
15 11 -1 -8 -11 -13 -25 -19 -35 -16 -9 4 -13 2 -9 -4 3 -5 0 -10 -8 -10 -8 0
-12 4 -9 9 3 4 -2 5 -10 2 -9 -3 -13 -11 -9 -18 4 -6 0 -6 -9 2 -13 10 -18 10
-24 1 -4 -8 -3 -9 4 -5 8 5 10 1 5 -9 -3 -9 -9 -12 -12 -7 -7 11 -42 12 -35 0
3 -4 -9 -8 -26 -8 -17 0 -29 -4 -26 -8 2 -4 -5 -9 -17 -9 -17 -2 -19 0 -7 7
10 7 11 10 2 10 -7 0 -17 -11 -22 -25 -5 -14 -12 -25 -15 -25 -4 0 -3 5 0 10
3 6 1 10 -4 10 -6 0 -11 -5 -11 -11 0 -5 -5 -7 -12 -3 -7 5 -9 2 -5 -9 4 -12
1 -15 -14 -12 -17 3 -19 2 -9 -10 10 -12 8 -13 -7 -10 -17 3 -19 -2 -17 -36 1
-21 -2 -41 -7 -45 -5 -3 -6 -10 -3 -16 4 -7 2 -8 -4 -4 -7 4 -12 2 -12 -5 0
-6 -8 -18 -17 -25 -16 -12 -16 -13 -1 -8 14 5 15 1 8 -30 -4 -20 -5 -36 -1
-36 3 0 -1 -5 -9 -11 -13 -9 -13 -10 1 -6 12 4 15 0 11 -19 -2 -13 -9 -21 -14
-18 -6 4 -2 -5 7 -20 17 -25 16 -26 -1 -27 -18 0 -18 -1 1 -9 11 -5 14 -9 7
-9 -7 -1 -10 -6 -6 -12 3 -6 0 -16 -7 -21 -11 -8 -11 -9 2 -5 13 4 16 -1 14
-24 -1 -16 -9 -37 -16 -46 -12 -15 -12 -16 4 -10 22 8 22 -2 -1 -20 -16 -14
-16 -14 3 -8 15 5 17 3 8 -6 -6 -6 -9 -18 -6 -27 4 -10 2 -13 -5 -8 -18 11
-14 0 5 -15 14 -12 16 -12 8 0 -6 10 -4 12 4 7 7 -5 10 -14 7 -22 -7 -17 10
-19 18 -1 2 6 4 3 3 -8 -2 -11 -7 -26 -11 -34 -7 -10 -6 -12 4 -6 10 6 12 4 7
-8 -6 -15 8 -31 26 -32 13 0 57 -46 57 -60 0 -16 28 -29 58 -26 12 1 22 -3 22
-9 0 -6 -5 -8 -12 -4 -7 4 -8 3 -4 -5 4 -6 11 -9 16 -6 4 3 10 2 13 -2 2 -5 2
-3 1 4 -2 7 3 10 12 6 7 -3 14 -10 14 -17 0 -6 5 -4 10 4 7 12 10 12 10 1 0
-9 8 -11 26 -7 19 5 24 4 18 -6 -4 -7 3 -4 16 7 13 11 20 14 15 6 -6 -11 -2
-13 17 -9 23 4 26 2 23 -20 l-3 -25 19 24 18 24 -4 -25 c-4 -23 -3 -23 9 -7
12 15 15 16 26 2 10 -12 16 -13 27 -3 11 9 16 9 24 -3 7 -11 9 -8 10 11 1 19
2 21 6 6 4 -13 7 -15 13 -7 5 9 12 8 25 -6 17 -16 18 -16 12 -1 -3 10 -2 20 3
23 6 4 10 1 10 -4 0 -6 7 -11 16 -11 14 0 14 1 0 16 -21 21 -20 30 1 13 14
-12 17 -12 21 0 4 11 6 11 13 0 7 -12 9 -11 9 1 0 13 1 13 10 0 9 -13 10 -13
10 0 0 13 1 13 10 0 8 -13 10 -13 10 1 0 22 31 33 42 17 7 -10 8 -9 5 2 -6 22
11 50 27 44 17 -6 36 24 36 56 0 13 -4 19 -12 14 -7 -5 -8 -3 -4 5 5 7 14 10
22 7 10 -4 11 0 4 19 -6 17 -5 27 5 35 14 12 97 11 89 -1 -2 -4 0 -10 6 -14 5
-3 15 -15 21 -27 8 -15 8 -19 0 -14 -6 4 -11 2 -11 -3 0 -6 9 -11 21 -11 14 0
19 -5 16 -14 -3 -7 2 -24 10 -37 9 -12 11 -19 5 -15 -13 8 -17 -6 -5 -18 4 -3
7 -20 8 -37 1 -22 -2 -28 -13 -24 -12 4 -12 1 2 -19 11 -18 13 -27 4 -32 -7
-5 -8 -2 -3 7 5 8 4 11 -1 6 -5 -5 -10 -13 -10 -18 -1 -5 -3 -11 -4 -14 -1 -3
-3 -8 -4 -12 -1 -5 -5 -15 -10 -23 -7 -12 -7 -13 5 -2 8 7 15 17 15 23 3 19 4
20 14 14 8 -5 7 -12 -1 -22 -10 -12 -10 -16 2 -24 10 -6 11 -9 1 -9 -7 0 -10
-4 -7 -10 4 -6 -1 -7 -10 -3 -15 5 -15 3 -4 -15 7 -11 17 -18 23 -15 5 4 6 1
2 -6 -5 -7 -14 -10 -22 -7 -8 3 -14 1 -14 -4 0 -6 7 -10 15 -10 9 0 12 -6 9
-15 -4 -9 0 -15 7 -16 8 0 5 -4 -6 -9 -19 -7 -19 -8 -2 -15 17 -7 17 -8 0 -21
-17 -13 -17 -14 1 -7 15 5 17 3 11 -8 -13 -20 -13 -49 -2 -56 6 -4 7 -1 2 7
-6 9 -4 11 5 5 10 -6 9 -11 -6 -23 -18 -13 -18 -14 6 -7 20 6 23 5 13 -6 -16
-16 -17 -29 -2 -29 5 0 8 4 5 8 -3 5 2 9 10 9 10 0 11 -4 4 -11 -12 -12 -14
-29 -2 -22 11 6 9 -34 -1 -51 -5 -7 -4 -13 1 -13 6 0 13 -7 16 -16 3 -8 2 -13
-3 -9 -11 6 -20 -15 -13 -32 2 -7 9 -10 16 -6 6 3 7 2 3 -3 -5 -5 -24 -9 -43
-9 -25 -1 -33 3 -29 13 3 10 -1 12 -16 7 -17 -6 -20 -4 -13 6 6 10 3 10 -11
-1 -17 -14 -17 -13 -11 10 5 17 4 21 -2 11 -6 -8 -17 -11 -27 -8 -11 5 -14 3
-10 -6 4 -6 -1 -3 -9 7 -15 19 -16 19 -16 1 0 -18 -1 -18 -16 1 -8 10 -13 13
-9 7 8 -16 -11 -17 -21 -2 -4 8 -9 7 -15 -2 -7 -11 -9 -11 -9 -1 0 8 -5 10
-12 6 -20 -13 -78 -13 -78 0 0 6 -5 4 -10 -4 -7 -11 -10 -11 -10 -2 0 8 -5 10
-12 5 -23 -13 -50 -14 -43 -1 4 7 0 5 -8 -4 -8 -10 -18 -14 -23 -10 -4 4 -2
-2 6 -12 10 -13 10 -17 3 -12 -8 4 -13 2 -13 -6 0 -9 -3 -9 -10 2 -5 8 -10 10
-10 4 0 -7 -9 -14 -20 -17 -13 -3 -18 -10 -14 -21 4 -10 1 -16 -10 -16 -18 0
-39 -33 -28 -46 4 -5 -2 -2 -12 6 -12 9 -17 10 -12 3 12 -22 -11 -52 -35 -46
-17 5 -20 3 -15 -8 4 -8 -3 -3 -15 11 -14 15 -20 18 -16 8 4 -12 1 -16 -13
-15 -14 1 -16 5 -10 17 9 17 7 19 -44 23 -13 1 -24 4 -24 7 2 23 -4 31 -18 26
-13 -5 -14 -4 -6 7 9 11 7 13 -11 12 -12 -1 -27 4 -34 11 -18 17 -16 29 1 15
11 -9 16 -9 22 0 4 7 3 9 -4 5 -6 -3 -14 -2 -17 4 -5 8 -11 8 -20 0 -10 -8
-15 -8 -21 1 -5 8 -3 10 7 4 12 -7 12 -5 1 6 -11 12 -14 12 -21 0 -7 -11 -10
-9 -16 8 -5 17 -10 19 -20 11 -9 -7 -16 -6 -24 4 -7 8 -20 12 -28 9 -11 -4
-14 -2 -9 5 6 10 -37 8 -55 -4 -4 -2 -10 0 -14 6 -4 7 -14 5 -28 -5 -19 -13
-23 -13 -41 3 -12 10 -16 12 -11 3 6 -11 4 -13 -7 -8 -9 3 -20 1 -26 -5 -6 -6
-12 -6 -17 3 -6 8 -4 10 6 4 8 -5 10 -4 6 0 -14 16 -36 14 -30 -2 5 -13 2 -13
-14 -5 -25 14 -37 4 -21 -17 7 -9 -1 -5 -17 9 -16 14 -23 17 -16 8 12 -16 10
-18 -18 -14 -17 2 -28 -1 -25 -6 3 -5 12 -7 20 -4 7 3 16 1 18 -3 3 -4 -9 -7
-27 -6 -18 1 -38 -3 -46 -9 -11 -8 -13 -8 -8 0 3 6 -1 11 -9 11 -8 0 -13 -6
-10 -14 3 -7 -1 -13 -9 -13 -8 0 -15 -6 -15 -12 0 -9 -4 -8 -10 2 -8 13 -10
13 -10 -2 0 -9 -4 -20 -10 -23 -6 -3 -7 1 -4 9 11 28 -5 17 -21 -15 -14 -26
-18 -29 -33 -17 -10 8 -13 8 -9 1 4 -6 3 -14 -3 -18 -5 -3 -10 -1 -10 4 0 6
-3 10 -7 9 -5 -1 -23 1 -42 5 -27 6 -31 10 -22 21 9 11 9 16 0 22 -7 4 -9 3
-6 -3 4 -6 0 -13 -8 -17 -8 -3 -15 -1 -15 4 0 6 -7 10 -15 10 -13 0 -19 12
-16 32 0 4 -6 5 -14 2 -8 -4 -15 -1 -15 6 0 6 -4 8 -10 5 -5 -3 -10 0 -10 7 0
10 -3 9 -11 -2 -9 -12 -10 -11 -6 6 3 17 0 20 -19 18 -16 -1 -21 2 -17 12 4
10 0 12 -11 8 -13 -5 -16 0 -16 22 0 16 0 36 -1 44 -2 22 5 44 16 52 6 4 1 8
-10 8 -16 1 -13 4 10 15 17 7 25 14 19 14 -5 1 -19 8 -30 16 -18 13 -18 14 6
9 14 -2 19 -2 13 2 -7 3 -13 10 -13 15 0 6 6 7 13 3 7 -5 6 0 -3 11 -14 17
-13 17 10 12 14 -4 19 -4 12 -1 -6 3 -9 11 -5 17 4 6 0 8 -10 4 -9 -3 -19 -2
-22 4 -4 5 -3 9 2 8 4 -1 15 -1 23 0 13 1 13 3 0 11 -12 7 -11 12 5 30 14 15
15 19 4 15 -10 -4 -16 0 -16 9 0 8 4 13 8 10 4 -2 10 0 14 6 3 5 2 10 -3 10
-5 0 -9 6 -9 14 0 8 6 12 15 8 10 -3 13 -1 8 6 -4 6 2 20 13 31 16 16 17 21 5
25 -7 3 -11 12 -8 21 3 8 10 13 15 10 7 -5 7 2 -1 40 -5 22 1 27 15 15 13 -11
14 -10 9 5 -5 12 -4 16 3 12 17 -10 9 23 -8 35 -11 8 -11 9 3 4 10 -3 20 -1
23 4 4 6 1 10 -4 10 -6 0 -11 5 -11 11 0 5 4 8 9 5 5 -4 7 4 3 16 -3 14 -1 19
6 14 6 -3 14 -1 18 5 4 7 3 9 -4 5 -6 -3 -13 -2 -17 4 -3 5 1 10 9 10 9 0 16
5 16 11 0 5 -4 7 -10 4 -5 -3 -10 -4 -10 0 0 3 12 10 26 15 23 9 24 12 13 27
-12 15 -12 16 4 10 15 -6 16 -4 6 14 -8 15 -8 19 0 15 6 -4 11 -2 11 4 0 7 6
10 13 7 7 -3 13 3 13 13 0 11 -6 16 -16 14 -8 -3 -5 1 8 7 12 7 22 16 22 21 0
5 -4 6 -10 3 -18 -11 -11 1 12 21 16 13 19 14 10 2 -10 -12 -10 -18 -1 -24 7
-4 9 -3 5 4 -3 6 -2 14 4 17 8 5 7 12 -2 23 -10 12 -10 14 0 8 11 -6 17 10 13
36 0 4 5 5 13 2 8 -3 17 0 22 7 4 7 3 10 -4 5 -9 -5 -10 13 -2 34 1 3 2 8 2
11 -1 4 8 5 18 2 16 -4 19 -2 14 11 -5 12 -2 15 10 10 12 -5 15 -2 9 12 -5 13
-3 15 7 9 10 -6 12 -4 7 9 -5 12 0 19 18 26 14 5 25 12 25 15 0 4 -4 4 -8 1
-5 -3 -9 1 -9 9 0 10 5 11 18 4 14 -7 17 -6 13 5 -3 8 0 17 7 22 8 5 10 3 4
-6 -5 -9 -4 -11 4 -6 9 6 9 11 -1 24 -11 13 -10 15 4 9 20 -7 35 9 16 16 -7 3
-4 6 7 6 23 1 49 36 39 53 -4 7 -3 8 4 4 7 -4 12 -2 12 3 0 6 5 11 11 11 5 0
7 -5 3 -12 -4 -7 -3 -8 4 -4 7 4 12 14 12 22 0 8 -4 12 -10 9 -6 -3 -7 1 -3
10 3 9 9 13 12 8 9 -12 34 -15 26 -3 -3 5 -1 10 5 10 6 0 8 5 4 13 -6 8 -3 8
9 -1 14 -12 16 -11 12 7 -2 12 0 19 5 16 11 -7 51 30 43 39 -3 3 4 4 15 1 12
-2 27 4 34 13 12 15 11 16 -4 3 -11 -8 -18 -9 -18 -3 0 6 9 14 20 17 12 4 17
11 13 18 -4 8 -1 7 9 -1 13 -11 16 -10 14 4 0 11 8 20 22 23 13 3 22 10 20 16
-2 5 4 10 12 10 19 0 61 24 78 44 12 14 13 14 8 -1 -7 -23 -3 -23 20 4 10 12
13 18 5 13 -9 -5 -12 -4 -7 3 3 6 15 9 26 7 12 -2 18 0 15 5 -3 5 -1 11 5 15
5 3 10 0 10 -7 0 -10 2 -10 9 0 4 8 11 13 15 13 19 -2 34 13 28 27 -5 15 -4
15 11 3 15 -12 21 -9 18 12 0 4 3 7 9 7 5 0 10 -6 11 -12 0 -10 2 -10 6 0 2 6
10 9 16 5 7 -4 5 2 -3 12 -14 17 -14 18 8 6 13 -7 26 -10 30 -7 3 3 0 6 -6 6
-7 0 -12 4 -12 10 0 5 7 6 17 3 11 -4 14 -3 9 5 -4 7 -2 12 3 12 6 0 11 -6 12
-12 0 -9 2 -9 5 -2 3 6 16 9 29 6 15 -2 25 0 25 7 0 7 -6 9 -12 5 -10 -5 -10
-4 -1 6 14 15 46 23 38 10 -3 -4 6 -7 19 -6 15 1 22 6 18 15 -4 11 -1 11 16 2
17 -9 23 -8 31 6 6 10 11 12 11 6 0 -18 11 -16 40 8 l25 21 -26 -15 c-19 -11
-26 -12 -26 -3 0 13 13 17 61 16 15 0 35 5 44 12 14 11 15 10 8 -6 -6 -19 -6
-19 12 -3 21 19 37 23 26 6 -4 -7 -1 -10 7 -7 8 3 13 14 12 24 -1 10 0 13 3 7
3 -7 13 -13 23 -13 9 0 23 6 30 13 11 10 13 10 7 0 -11 -19 14 -16 37 5 19 17
20 16 7 -7 l-13 -24 27 21 c15 11 36 19 46 17 11 -2 20 0 20 6 0 5 3 9 6 9 3
0 4 -7 0 -15z m-691 -5 c-3 -5 -12 -10 -18 -10 -7 0 -6 4 3 10 19 12 23 12 15
0z m975 6 c0 -3 -4 -8 -10 -11 -5 -3 -10 -1 -10 4 0 6 5 11 10 11 6 0 10 -2
10 -4z m17 -18 c-3 -8 -6 -5 -6 6 -1 11 2 17 5 13 3 -3 4 -12 1 -19z m75 -6
c9 -9 9 -12 0 -12 -7 0 -12 5 -12 11 0 5 -4 8 -9 4 -5 -3 -12 -1 -15 4 -8 13
22 7 36 -7z m577 -16 c0 -7 -2 -6 -6 2 -2 6 -8 10 -12 8 -4 -3 -8 1 -8 9 0 11
4 12 14 4 7 -6 13 -17 12 -23z m-229 -76 c0 -5 -2 -10 -4 -10 -3 0 -8 5 -11
10 -3 6 -1 10 4 10 6 0 11 -4 11 -10z m-1420 -74 c0 -3 -4 -8 -10 -11 -5 -3
-10 -1 -10 4 0 6 5 11 10 11 6 0 10 -2 10 -4z m-140 -72 c0 -8 -19 -13 -24 -6
-3 5 1 9 9 9 8 0 15 -2 15 -3z m390 -14 c0 -5 -8 -10 -17 -10 -15 0 -16 2 -3
10 19 12 20 12 20 0z m207 -22 c-3 -8 -6 -5 -6 6 -1 11 2 17 5 13 3 -3 4 -12
1 -19z m67 -6 c3 -5 -1 -9 -9 -9 -8 0 -12 4 -9 9 3 4 7 8 9 8 2 0 6 -4 9 -8z
m1560 -238 c3 -8 2 -12 -4 -9 -6 3 -10 10 -10 16 0 14 7 11 14 -7z m-2574 -8
c0 -2 -8 -10 -17 -17 -16 -13 -17 -12 -4 4 13 16 21 21 21 13z m-256 -51 c-4
-8 -11 -15 -16 -15 -6 0 -5 6 2 15 7 8 14 15 16 15 2 0 1 -7 -2 -15z m2886 -5
c0 -5 -2 -10 -4 -10 -3 0 -8 5 -11 10 -3 6 -1 10 4 10 6 0 11 -4 11 -10z
m-2355 -70 c3 -6 -1 -7 -9 -4 -18 7 -21 14 -7 14 6 0 13 -4 16 -10z m-615 -30
c0 -5 -5 -10 -11 -10 -5 0 -7 5 -4 10 3 6 8 10 11 10 2 0 4 -4 4 -10z m3431
-337 c13 -16 12 -17 -3 -4 -17 13 -22 21 -14 21 2 0 10 -8 17 -17z m-2080 -90
c-12 -20 -14 -14 -5 12 4 9 9 14 11 11 3 -2 0 -13 -6 -23z m2133 -52 c-5 -6
-34 20 -34 30 0 5 8 1 18 -8 10 -10 17 -20 16 -22z m-2743 12 c13 -16 12 -17
-3 -4 -10 7 -18 15 -18 17 0 8 8 3 21 -13z m-781 -9 c0 -8 -19 -13 -24 -6 -3
5 1 9 9 9 8 0 15 -2 15 -3z m-52 -144 c-7 -10 -14 -17 -17 -15 -4 4 18 35 25
35 2 0 -1 -9 -8 -20z m-203 -248 c-3 -3 -11 0 -18 7 -9 10 -8 11 6 5 10 -3 15
-9 12 -12z m-1 -21 c3 -5 -1 -11 -9 -14 -9 -4 -12 -1 -8 9 6 16 10 17 17 5z
m2940 -51 c-6 -5 -24 21 -24 34 0 6 6 1 14 -10 8 -10 12 -21 10 -24z m-2954
-70 c0 -5 -2 -10 -4 -10 -3 0 -8 5 -11 10 -3 6 -1 10 4 10 6 0 11 -4 11 -10z
m3055 -100 c3 -5 1 -10 -4 -10 -6 0 -11 5 -11 10 0 6 2 10 4 10 3 0 8 -4 11
-10z m832 -45 c0 -8 -4 -12 -9 -9 -5 3 -6 10 -3 15 9 13 12 11 12 -6z m-3890
-120 c0 -8 -4 -12 -9 -9 -5 3 -6 10 -3 15 9 13 12 11 12 -6z m306 -870 c-3 -9
-8 -14 -10 -11 -3 3 -2 9 2 15 9 16 15 13 8 -4z m2277 -25 c0 -5 -4 -10 -10
-10 -5 0 -10 5 -10 10 0 6 5 10 10 10 6 0 10 -4 10 -10z m-199 -93 c-10 -9
-11 -8 -5 6 3 10 9 15 12 12 3 -3 0 -11 -7 -18z m979 -153 c0 -8 -19 -13 -24
-6 -3 5 1 9 9 9 8 0 15 -2 15 -3z m-2810 -29 c14 -19 14 -19 -2 -6 -10 7 -18
18 -18 24 0 6 1 8 3 6 1 -2 9 -13 17 -24z m1500 14 c0 -15 -18 -19 -23 -6 -3
8 1 14 9 14 8 0 14 -4 14 -8z m-1237 -234 c23 -32 17 -32 -13 0 -13 14 -19 25
-14 25 5 0 17 -12 27 -25z m1919 -7 c-7 -7 -12 -8 -12 -2 0 14 12 26 19 19 2
-3 -1 -11 -7 -17z m-1572 -3 c11 -13 10 -14 -4 -9 -9 3 -16 10 -16 15 0 13 6
11 20 -6z m1851 -32 c-12 -20 -14 -14 -5 12 4 9 9 14 11 11 3 -2 0 -13 -6 -23z
m-31 -18 c-7 -9 -15 -13 -19 -10 -3 3 1 10 9 15 21 14 24 12 10 -5z m-433 -18
c0 -8 -6 -14 -14 -14 -9 0 -10 4 -2 14 6 7 12 13 14 13 1 0 2 -6 2 -13z m-313
-93 c3 -8 2 -12 -4 -9 -6 3 -10 10 -10 16 0 14 7 11 14 -7z m-754 -134 c0 -5
-2 -10 -4 -10 -3 0 -8 5 -11 10 -3 6 -1 10 4 10 6 0 11 -4 11 -10z m144 -26
c3 -8 2 -12 -4 -9 -6 3 -10 10 -10 16 0 14 7 11 14 -7z"/>
<path d="M1854 3758 c-4 -5 -3 -12 0 -15 3 -4 6 -1 6 6 0 7 4 10 9 6 5 -3 12
-2 15 3 3 5 -2 9 -10 9 -8 0 -17 -4 -20 -9z"/>
<path d="M2100 3766 c0 -2 8 -10 18 -17 15 -13 16 -12 3 4 -13 16 -21 21 -21
13z"/>
<path d="M2455 3700 c-3 -5 -1 -10 4 -10 6 0 11 5 11 10 0 6 -2 10 -4 10 -3 0
-8 -4 -11 -10z"/>
<path d="M2570 3671 c0 -5 5 -13 10 -16 6 -3 10 -2 10 4 0 5 -4 13 -10 16 -5
3 -10 2 -10 -4z"/>
<path d="M2700 3626 c0 -2 7 -9 15 -16 9 -7 15 -8 15 -2 0 5 -7 12 -15 16 -8
3 -15 4 -15 2z"/>
<path d="M2046 3298 c3 -5 10 -6 15 -3 13 9 11 12 -6 12 -8 0 -12 -4 -9 -9z"/>
<path d="M976 3241 c-4 -5 -2 -12 3 -15 5 -4 12 -2 15 3 4 5 2 12 -3 15 -5 4
-12 2 -15 -3z"/>
<path d="M2150 3206 c0 -2 7 -7 16 -10 8 -3 12 -2 9 4 -6 10 -25 14 -25 6z"/>
<path d="M525 2990 c-3 -5 -1 -10 4 -10 6 0 11 5 11 10 0 6 -2 10 -4 10 -3 0
-8 -4 -11 -10z"/>
<path d="M1765 2751 c-3 -5 -1 -12 5 -16 5 -3 10 1 10 9 0 18 -6 21 -15 7z"/>
<path d="M1845 2740 c10 -11 20 -20 23 -20 3 0 -3 9 -13 20 -10 11 -20 20 -23
20 -3 0 3 -9 13 -20z"/>
<path d="M1039 2657 c6 -8 7 -18 3 -22 -4 -5 -1 -5 6 -1 10 6 10 11 1 22 -6 8
-14 14 -16 14 -3 0 0 -6 6 -13z"/>
<path d="M1310 2529 c0 -5 5 -7 10 -4 6 3 10 8 10 11 0 2 -4 4 -10 4 -5 0 -10
-5 -10 -11z"/>
<path d="M3740 2259 c0 -5 5 -7 10 -4 6 3 10 8 10 11 0 2 -4 4 -10 4 -5 0 -10
-5 -10 -11z"/>
<path d="M3759 2179 c0 -2 -2 -11 -4 -20 -1 -9 3 -16 10 -16 7 0 12 6 11 13
-2 13 -15 31 -17 23z"/>
<path d="M235 2120 c-3 -5 -1 -10 4 -10 6 0 11 5 11 10 0 6 -2 10 -4 10 -3 0
-8 -4 -11 -10z"/>
<path d="M3758 2123 c7 -3 16 -2 19 1 4 3 -2 6 -13 5 -11 0 -14 -3 -6 -6z"/>
<path d="M1055 2041 c-3 -5 -1 -12 5 -16 5 -3 10 1 10 9 0 18 -6 21 -15 7z"/>
<path d="M1927 2009 c7 -7 15 -10 18 -7 3 3 -2 9 -12 12 -14 6 -15 5 -6 -5z"/>
<path d="M1385 1889 c-4 -6 -5 -12 -2 -15 2 -3 7 2 10 11 7 17 1 20 -8 4z"/>
<path d="M3175 1760 c-3 -5 -1 -10 4 -10 6 0 11 5 11 10 0 6 -2 10 -4 10 -3 0
-8 -4 -11 -10z"/>
<path d="M3168 1513 c7 -3 16 -2 19 1 4 3 -2 6 -13 5 -11 0 -14 -3 -6 -6z"/>
<path d="M3129 633 c-13 -16 -12 -17 4 -4 16 13 21 21 13 21 -2 0 -10 -8 -17
-17z"/>
<path d="M1790 626 c7 -7 13 -7 20 0 6 6 3 10 -10 10 -13 0 -16 -4 -10 -10z"/>
<path d="M1930 610 c-9 -6 -10 -10 -3 -10 6 0 15 5 18 10 8 12 4 12 -15 0z"/>
<path d="M3047 568 c-10 -11 -17 -22 -14 -24 2 -2 12 5 22 16 23 26 16 33 -8
8z"/>
<path d="M1880 246 c0 -2 8 -10 18 -17 15 -13 16 -12 3 4 -13 16 -21 21 -21
13z"/>
<path d="M2115 240 c-3 -5 -1 -10 4 -10 6 0 11 5 11 10 0 6 -2 10 -4 10 -3 0
-8 -4 -11 -10z"/>
<path d="M2090 3950 c0 -5 5 -10 11 -10 5 0 7 5 4 10 -3 6 -8 10 -11 10 -2 0
-4 -4 -4 -10z"/>
<path d="M2482 3894 c10 -10 20 -16 22 -13 3 3 -5 11 -17 18 -21 13 -21 12 -5
-5z"/>
<path d="M3472 3285 c4 -7 5 -14 2 -17 -2 -3 2 -8 10 -11 9 -4 18 -1 22 6 4 7
4 9 -1 5 -4 -4 -15 1 -24 10 -9 10 -13 13 -9 7z"/>
<path d="M228 1153 c7 -3 16 -2 19 1 4 3 -2 6 -13 5 -11 0 -14 -3 -6 -6z"/>
<path d="M974 331 c7 -11 46 -35 46 -28 0 3 -12 12 -26 22 -15 9 -23 12 -20 6z"/>
<path d="M2445 90 c-3 -5 -1 -11 4 -14 5 -4 12 -2 16 4 4 6 12 7 18 4 7 -4 8
-3 4 1 -11 12 -36 15 -42 5z"/>
<path d="M1721 63 c7 -12 15 -20 18 -17 3 2 -3 12 -13 22 -17 16 -18 16 -5 -5z"/>
</g>
</svg>
